<svg width="193" height="193" viewBox="0 0 193 193" fill="none" xmlns="http://www.w3.org/2000/svg">
<path d="M96.4637 85.1104C93.3233 81.97 88.2316 81.97 85.0911 85.1104C81.9506 88.2509 81.9506 93.3426 85.0911 96.4831L107.836 119.228C110.977 122.369 116.069 122.369 119.209 119.228C122.349 116.088 122.349 110.996 119.209 107.856L96.4637 85.1104Z" fill="#F2F2F2"/>
<path d="M102.177 51.0007C99.0362 47.8602 93.9445 47.8602 90.804 51.0007C87.6635 54.1412 87.6635 59.2329 90.804 62.3733L107.863 79.4323C111.003 82.5727 116.095 82.5727 119.236 79.4323C122.376 76.2918 122.376 71.2001 119.236 68.0596L102.177 51.0007Z" fill="#68ABDF"/>
<path d="M82.285 31.1029C79.1446 27.9624 74.0529 27.9624 70.9124 31.1029C67.7719 34.2433 67.7719 39.335 70.9124 42.4755C74.0529 45.616 79.1446 45.616 82.285 42.4755C85.4255 39.335 85.4255 34.2433 82.285 31.1029Z" fill="#99C47A"/>
<path d="M50.9745 39.6206C47.834 36.4801 42.7423 36.4801 39.6018 39.6206C36.4614 42.761 36.4614 47.8527 39.6018 50.9932L65.1903 76.5816C68.3307 79.7221 73.4224 79.7221 76.5629 76.5816C79.7034 73.4412 79.7034 68.3495 76.5629 65.209L50.9745 39.6206Z" fill="#FFC66D"/>
<path d="M45.3241 73.7562C42.1836 70.6157 37.0919 70.6157 33.9515 73.7562C30.811 76.8967 30.811 81.9884 33.9515 85.1288L68.0694 119.247C71.2098 122.387 76.3015 122.387 79.442 119.247C82.5825 116.106 82.5825 111.015 79.442 107.874L45.3241 73.7562Z" fill="#FF6470"/>
<path d="M79.7824 130.329C75.8252 132.345 74.2518 137.188 76.2681 141.145C78.2844 145.102 83.1269 146.675 87.0841 144.659L115.745 130.056C119.702 128.039 121.275 123.197 119.259 119.24C117.243 115.282 112.4 113.709 108.443 115.725L79.7824 130.329Z" fill="#F2F2F2"/>
<path d="M117.574 160.224C118.269 164.611 122.388 167.604 126.775 166.909C131.161 166.214 134.154 162.095 133.459 157.708L128.427 125.938C127.733 121.551 123.613 118.558 119.227 119.253C114.84 119.948 111.847 124.067 112.542 128.454L117.574 160.224Z" fill="#F2F2F2"/>
<path d="M157.692 133.476C162.078 134.171 166.198 131.178 166.892 126.792C167.587 122.405 164.594 118.286 160.208 117.591L128.437 112.559C124.05 111.864 119.931 114.857 119.236 119.244C118.542 123.63 121.534 127.75 125.921 128.444L157.692 133.476Z" fill="#F2F2F2"/>
<path d="M144.679 87.0693C146.695 83.1121 145.121 78.2696 141.164 76.2533C137.207 74.237 132.364 75.8104 130.348 79.7676L115.745 108.428C113.729 112.386 115.302 117.228 119.259 119.244C123.216 121.261 128.059 119.687 130.075 115.73L144.679 87.0693Z" fill="#F2F2F2"/>
</svg>
